<svg xmlns="http://www.w3.org/2000/svg" width="30" height="29.97" viewBox="0 0 30 29.97">
  <metadata><?xpacket begin="﻿" id="W5M0MpCehiHzreSzNTczkc9d"?>
<x:xmpmeta xmlns:x="adobe:ns:meta/" x:xmptk="Adobe XMP Core 5.6-c138 79.159824, 2016/09/14-01:09:01        ">
   <rdf:RDF xmlns:rdf="http://www.w3.org/1999/02/22-rdf-syntax-ns#">
      <rdf:Description rdf:about=""/>
   </rdf:RDF>
</x:xmpmeta>
                                                                                                    
                                                                                                    
                                                                                                    
                                                                                                    
                                                                                                    
                                                                                                    
                                                                                                    
                                                                                                    
                                                                                                    
                                                                                                    
                                                                                                    
                                                                                                    
                                                                                                    
                                                                                                    
                                                                                                    
                                                                                                    
                                                                                                    
                                                                                                    
                                                                                                    
                                                                                                    
                           
<?xpacket end="w"?></metadata>
<defs>
    <style>
      .cls-1 {
        fill: #fbc32b;
        fill-rule: evenodd;
      }
    </style>
  </defs>
  <path id="Forma_1" data-name="Forma 1" class="cls-1" d="M1214.99,5388.47a0.3,0.3,0,0,0-.02-0.1,0.161,0.161,0,0,0-.03-0.09,0.351,0.351,0,0,0-.05-0.08,0.374,0.374,0,0,0-.06-0.07c-0.01-.01-0.01-0.02-0.02-0.03l-4.81-3.73v-3.87a1.5,1.5,0,0,0-1.5-1.5h-5.42l-2.17-1.69a1.5,1.5,0,0,0-1.82,0l-2.17,1.69h-5.42a1.5,1.5,0,0,0-1.5,1.5v3.87l-4.81,3.73c-0.01.01-.01,0.02-0.02,0.03l-0.07.07a0.351,0.351,0,0,1-.05.08,0.292,0.292,0,0,0-.02.09,0.3,0.3,0,0,0-.02.1c0,0.01-.01.02-0.01,0.03v17a1.452,1.452,0,0,0,.29.88,0.02,0.02,0,0,1,.01.02,0.031,0.031,0,0,1,.02.01,1.473,1.473,0,0,0,1.18.59h27a1.506,1.506,0,0,0,1.19-.59,0.01,0.01,0,0,1,.01-0.01,0.02,0.02,0,0,1,.01-0.02,1.452,1.452,0,0,0,.29-0.88v-17C1215,5388.49,1214.99,5388.48,1214.99,5388.47Zm-15.29-10.37a0.481,0.481,0,0,1,.6,0l1.15,0.9h-2.9Zm-13.08,27.9,13.08-10.16a0.51,0.51,0,0,1,.6,0l13.07,10.16h-26.75Zm27.38-.78-13.09-10.17a1.5,1.5,0,0,0-1.82,0L1186,5405.22v-15.96l8.19,6.36a0.5,0.5,0,0,0,.7-0.09,0.5,0.5,0,0,0-.08-0.7l-8.33-6.46,3.52-2.74v3.87a0.5,0.5,0,0,0,.5.5,0.508,0.508,0,0,0,.5-0.5v-9a0.5,0.5,0,0,1,.5-0.5h17a0.5,0.5,0,0,1,.5.5v9a0.5,0.5,0,0,0,1,0v-3.87l3.52,2.74-8.34,6.47a0.508,0.508,0,0,0-.2.47,0.534,0.534,0,0,0,.31.4,0.5,0.5,0,0,0,.5-0.08l8.21-6.37v15.96h0Zm-8-16.22v-2a6,6,0,1,0-6,6,0.5,0.5,0,0,0,0-1,5,5,0,1,1,5-5v2a1,1,0,0,1-2,0v-2a0.5,0.5,0,0,0-1,0,2,2,0,1,1-2-2,0.5,0.5,0,0,0,.5-0.5,0.5,0.5,0,0,0-.5-0.5,3.009,3.009,0,0,0-2.89,2.18,3,3,0,0,0,4.91,3.03A2,2,0,0,0,1206,5389Z" transform="translate(-1185 -5377.03)"/>
</svg>
